<?xml version="1.0" standalone="no"?>
<!DOCTYPE svg PUBLIC "-//W3C//DTD SVG 20010904//EN"
 "http://www.w3.org/TR/2001/REC-SVG-20010904/DTD/svg10.dtd">
<svg version="1.0" xmlns="http://www.w3.org/2000/svg"
 width="200.000000pt" height="200.000000pt" viewBox="0 0 200.000000 200.000000"
 preserveAspectRatio="xMidYMid meet">

<g transform="translate(0.000000,200.000000) scale(0.100000,-0.100000)"
fill="#000000" stroke="none">
<path d="M0 1000 l0 -1000 1000 0 1000 0 0 1000 0 1000 -1000 0 -1000 0 0
-1000z m965 448 c-8 -61 -33 -114 -67 -144 -12 -11 -79 -61 -147 -110 -68 -49
-130 -98 -137 -110 -12 -18 -6 -43 52 -225 37 -112 71 -210 76 -216 7 -9 39
-13 95 -13 77 0 86 -2 110 -26 20 -20 24 -31 19 -57 -10 -53 -27 -59 -156 -55
-173 5 -160 -10 -265 312 -47 144 -85 270 -85 280 0 56 27 83 256 250 126 91
235 166 242 166 11 0 12 -12 7 -52z m98 40 c21 -11 237 -165 384 -275 77 -57
101 -99 88 -151 -12 -53 -157 -486 -170 -513 -23 -44 -70 -59 -189 -59 -93 0
-109 3 -126 20 -20 20 -26 65 -12 86 16 24 54 34 130 34 52 0 83 4 89 13 9 10
37 91 67 193 6 20 0 23 -66 39 -101 24 -122 38 -114 78 4 18 15 41 26 51 18
19 21 19 97 2 43 -10 84 -19 92 -20 19 -1 42 73 29 96 -4 10 -71 63 -148 119
-77 55 -151 115 -164 132 -26 34 -46 95 -46 140 0 30 2 32 33 15z"/>
</g>
</svg>
