<?xml version="1.0" standalone="no"?>
<!DOCTYPE svg PUBLIC "-//W3C//DTD SVG 20010904//EN"
 "http://www.w3.org/TR/2001/REC-SVG-20010904/DTD/svg10.dtd">
<svg version="1.0" xmlns="http://www.w3.org/2000/svg"
 width="474.000000pt" height="474.000000pt" viewBox="0 0 474.000000 474.000000"
 preserveAspectRatio="xMidYMid meet">

<g transform="translate(0.000000,474.000000) scale(0.100000,-0.100000)"
fill="#000000" stroke="none">
<path d="M1809 3667 c-90 -34 -126 -78 -215 -267 -32 -69 -77 -156 -100 -195
-51 -87 -115 -188 -124 -195 -20 -16 -50 -72 -44 -81 4 -7 3 -9 -3 -6 -6 4
-45 -35 -86 -86 -88 -109 -223 -240 -324 -317 -63 -48 -73 -59 -73 -86 0 -40
27 -107 40 -99 5 3 7 0 4 -8 -6 -15 29 -43 79 -65 53 -23 142 -15 214 18 36
17 78 40 93 50 57 41 57 36 5 -190 -19 -80 -39 -205 -46 -279 -32 -354 78
-626 298 -732 61 -30 79 -34 176 -37 108 -4 151 2 247 36 122 44 270 163 406
327 107 130 312 464 298 487 -4 7 -4 10 1 6 9 -9 53 58 82 128 12 28 44 98 71
155 27 57 59 125 71 152 12 26 24 47 29 47 4 0 8 -71 8 -158 3 -292 50 -481
149 -604 33 -40 120 -98 181 -119 242 -85 577 40 709 267 49 84 63 122 71 200
8 75 -15 154 -51 178 -23 15 -26 14 -87 -42 -35 -31 -65 -59 -68 -62 -17 -20
-132 -101 -165 -118 -69 -35 -144 -33 -178 3 -42 46 -56 116 -67 332 -5 112
-10 287 -10 390 -1 229 -17 357 -58 444 -90 197 -298 211 -404 28 -14 -24 -58
-109 -97 -189 -40 -80 -77 -154 -84 -165 -17 -30 -182 -350 -225 -435 -20 -41
-43 -81 -50 -89 -7 -7 -11 -20 -8 -28 3 -8 2 -12 -3 -9 -4 3 -18 -14 -31 -37
-13 -23 -43 -73 -67 -110 -24 -38 -40 -74 -37 -80 4 -7 3 -9 -1 -5 -5 5 -31
-27 -59 -70 -101 -154 -239 -322 -291 -353 -57 -35 -116 -15 -150 52 -27 51
-37 181 -25 304 11 103 64 392 95 515 26 102 107 414 140 540 70 265 74 466 9
576 -41 72 -163 112 -245 81z"/>
</g>
</svg>
